<svg width="159" height="36" viewBox="0 0 159 36" fill="none" xmlns="http://www.w3.org/2000/svg">
<path d="M28.0992 30.0748C21.7559 30.4052 15.4375 30.2414 9.16635 29.1476C6.69962 28.753 4.30011 28.0158 2.03738 26.9573C1.1407 26.5214 0.24402 26.0273 0.00805275 24.8891C0.00805275 26.6963 0.0219332 28.498 0.00805275 30.308C-0.0197849 30.607 0.0348479 30.908 0.166012 31.1781C0.297176 31.4483 0.499862 31.6773 0.752049 31.8404C1.5284 32.3464 2.34993 32.7795 3.2061 33.1341C7.76443 34.8858 12.5559 35.4049 17.3641 35.7019C24.7968 36.123 32.2531 35.6495 39.5728 34.2917C39.8282 34.2473 41.3245 33.9363 42.2128 33.7531L38.9676 28.7562C35.3531 29.3114 31.7525 29.886 28.0992 30.0748Z" fill="url(#paint0_linear)"/>
<path d="M31.4144 21.1941C24.0023 21.8604 16.6068 21.7965 9.25021 20.5362C6.76466 20.1545 4.3446 19.4276 2.06017 18.3764C1.15516 17.9406 0.269589 17.4242 0.00863766 16.286C0.00863766 18.0933 0.0225181 19.8949 0.00863766 21.7049C-0.0139792 22.0044 0.0447777 22.3043 0.178678 22.5731C0.312578 22.8419 0.516646 23.0695 0.769289 23.2318C1.44584 23.6878 2.1633 24.08 2.91242 24.4033C7.09875 26.0689 11.5044 26.6464 15.96 26.9795C21.2571 27.3849 26.58 27.3125 31.8642 26.763C33.0162 26.6436 35.6813 26.2882 37.2331 26.0856L33.8463 20.8943C33.0357 21.0081 32.2278 21.1192 31.4144 21.1941Z" fill="url(#paint1_linear)"/>
<path d="M62.0231 27.7651C61.9815 26.7241 62.0231 25.6802 62.0231 24.6364V22.5849C61.876 23.4649 61.2681 23.9507 60.5824 24.3561C58.8307 25.3721 56.8874 25.8218 54.9441 26.241C54.4222 26.3548 53.8976 26.4492 53.3701 26.5464V32.1485C54.6166 31.8931 55.8686 31.6544 57.1039 31.3462C58.4859 31.0437 59.8022 30.4955 60.9905 29.7278C61.3259 29.5266 61.5995 29.2372 61.7817 28.8911C61.9638 28.5449 62.0473 28.1554 62.0231 27.7651Z" fill="url(#paint2_linear)"/>
<path d="M58.1371 22.3906C59.1685 22.0284 60.1609 21.5634 61.0992 21.0026C61.7599 20.6389 62.032 20.0032 62.0153 19.2148C61.9848 17.613 62.0153 16.0112 62.0153 14.4121C62.0153 14.2706 61.9959 14.1345 61.9792 13.8958C61.7016 14.8285 61.3851 15.2838 60.5495 15.728C59.943 16.0906 59.2977 16.3839 58.6257 16.6025C56.8907 17.0827 55.1362 17.4908 53.3789 17.8906V23.601C55.0307 23.2012 56.6103 22.8653 58.1371 22.3906Z" fill="url(#paint3_linear)"/>
<path d="M61.9427 6.44482C61.9427 5.66196 62.026 5.08731 61.7595 4.61537C61.3264 5.88959 60.0938 7.20823 57.7008 8.17431C56.1407 8.49633 54.5889 8.86 53.0231 9.12928C50.7856 9.51516 48.537 9.84273 46.2912 10.1675C45.8303 10.2342 45.6887 10.3952 45.6943 10.8699C45.7304 14.6509 45.7359 18.4319 45.7498 22.2129C45.7646 22.4272 45.7294 22.642 45.6471 22.8403C45.2002 22.1713 44.7504 21.5023 44.3062 20.8305C42.5656 18.1876 40.8139 15.5559 39.0983 12.8936C38.3904 11.7971 37.4549 11.4334 36.1918 11.6472C30.5245 12.5689 24.777 12.902 19.0411 12.641C15.1102 12.4856 11.1987 12.1358 7.35384 11.253C6.60708 11.0809 5.86864 10.8671 5.13298 10.6561C4.29535 10.4227 3.49521 10.0713 2.75665 9.61232C1.60736 8.88776 0.358116 7.73291 0.791185 6.28102C0.216536 6.7363 0.0222134 7.29151 0.0222134 8.10213C0.0222134 9.8927 0 11.067 0 12.5439C0 14.1096 0.421968 14.2928 1.30476 14.8064C2.99817 15.7947 4.8637 16.3249 6.73755 16.794C10.4936 17.7296 14.3274 18.1044 18.1861 18.282C23.8549 18.5402 29.507 18.3792 35.1202 17.5047C35.2608 17.4833 35.4046 17.5031 35.5342 17.5618C35.6638 17.6204 35.7736 17.7153 35.8503 17.8351C36.5027 18.8539 37.1884 19.8477 37.8546 20.8582C40.3198 24.6059 42.7822 28.3555 45.2418 32.1069C45.6998 32.8093 46.305 33.3034 47.1656 33.234C48.276 33.1424 49.4031 32.9564 50.558 32.7898V15.2172C52.4874 14.8452 54.3751 14.5232 56.2434 14.1068C57.8813 13.7459 59.4859 13.274 60.91 12.3246C61.7678 11.7693 61.9649 11.0253 61.9649 9.79277C61.9677 8.6518 61.9427 8.02441 61.9427 6.44482Z" fill="url(#paint4_linear)"/>
<path d="M61.9427 6.44482C61.9427 5.66196 62.026 5.08731 61.7595 4.61537C61.3264 5.88959 60.0938 7.20823 57.7008 8.17431C56.1407 8.49633 54.5889 8.86 53.0231 9.12928C50.7856 9.51516 48.537 9.84273 46.2912 10.1675C45.8303 10.2342 45.6887 10.3952 45.6943 10.8699C45.7304 14.6509 45.7359 18.4319 45.7498 22.2129C45.7646 22.4272 45.7294 22.642 45.6471 22.8403C45.2002 22.1713 44.7504 21.5023 44.3062 20.8305C42.5656 18.1876 40.8139 15.5559 39.0983 12.8936C38.3904 11.7971 37.4549 11.4334 36.1918 11.6472C30.5245 12.5689 24.777 12.902 19.0411 12.641C15.1102 12.4856 11.1987 12.1358 7.35384 11.253C6.60708 11.0809 5.86864 10.8671 5.13298 10.6561C4.29535 10.4227 3.49521 10.0713 2.75665 9.61232C1.60736 8.88776 0.358116 7.73291 0.791185 6.28102C0.216536 6.7363 0.0222134 7.29151 0.0222134 8.10213C0.0222134 9.8927 0 11.067 0 12.5439C0 14.1096 0.421968 14.2928 1.30476 14.8064C2.99817 15.7947 4.8637 16.3249 6.73755 16.794C10.4936 17.7296 14.3274 18.1044 18.1861 18.282C23.8549 18.5402 29.507 18.3792 35.1202 17.5047C35.2608 17.4833 35.4046 17.5031 35.5342 17.5618C35.6638 17.6204 35.7736 17.7153 35.8503 17.8351C36.5027 18.8539 37.1884 19.8477 37.8546 20.8582C40.3198 24.6059 42.7822 28.3555 45.2418 32.1069C45.6998 32.8093 46.305 33.3034 47.1656 33.234C48.276 33.1424 49.4031 32.9564 50.558 32.7898V15.2172C52.4874 14.8452 54.3751 14.5232 56.2434 14.1068C57.8813 13.7459 59.4859 13.274 60.91 12.3246C61.7678 11.7693 61.9649 11.0253 61.9649 9.79277C61.9677 8.6518 61.9427 8.02441 61.9427 6.44482Z" fill="url(#paint5_linear)"/>
<path d="M2.90348 5.14004C2.13853 5.39903 1.42389 5.78782 0.790881 6.28934C0.0357867 8.82668 4.24433 10.3619 4.24433 10.3619C4.2973 10.3234 4.35645 10.2943 4.41922 10.2758C5.47968 10.0315 6.53182 9.72057 7.60616 9.55678C12.1423 8.81649 16.6839 8.1049 21.2312 7.42198C24.146 6.97503 27.0609 6.51421 29.9869 6.15887C33.6512 5.72778 37.3422 5.56541 41.0302 5.67305C45.7245 5.79798 50.3967 6.12278 54.9744 7.20545C55.8905 7.42198 56.8705 7.66628 57.6977 8.16598C60.0324 7.23044 61.3233 5.88125 61.7564 4.60703C61.5421 4.2524 61.2449 3.95516 60.8902 3.7409C60.5799 3.5316 60.2541 3.346 59.9158 3.18568C57.7987 2.26599 55.5827 1.59344 53.3115 1.18135C49.4243 0.477231 45.4855 0.0946889 41.5354 0.0376056C36.5613 -0.110936 31.5839 0.180768 26.6612 0.909299L5.4075 4.47379C4.55399 4.61783 3.71572 4.84087 2.90348 5.14004Z" fill="url(#paint6_linear)"/>
<path d="M2.90348 5.14004C2.13853 5.39903 1.42389 5.78782 0.790881 6.28934C0.0357867 8.82668 4.24433 10.3619 4.24433 10.3619C4.2973 10.3234 4.35645 10.2943 4.41922 10.2758C5.47968 10.0315 6.53182 9.72057 7.60616 9.55678C12.1423 8.81649 16.6839 8.1049 21.2312 7.42198C24.146 6.97503 27.0609 6.51421 29.9869 6.15887C33.6512 5.72778 37.3422 5.56541 41.0302 5.67305C45.7245 5.79798 50.3967 6.12278 54.9744 7.20545C55.8905 7.42198 56.8705 7.66628 57.6977 8.16598C60.0324 7.23044 61.3233 5.88125 61.7564 4.60703C61.5421 4.2524 61.2449 3.95516 60.8902 3.7409C60.5799 3.5316 60.2541 3.346 59.9158 3.18568C57.7987 2.26599 55.5827 1.59344 53.3115 1.18135C49.4243 0.477231 45.4855 0.0946889 41.5354 0.0376056C36.5613 -0.110936 31.5839 0.180768 26.6612 0.909299L5.4075 4.47379C4.55399 4.61783 3.71572 4.84087 2.90348 5.14004Z" fill="url(#paint7_linear)"/>
<path d="M132.12 27.4875L131.584 27.3293C131.22 27.2099 130.651 27.0267 130.651 26.5575C130.651 26.0884 131.168 25.9745 131.553 25.9745H132.703L133.683 24.1562H118.883C118.57 24.1562 118.269 24.2808 118.047 24.5026C117.825 24.7244 117.701 25.0252 117.701 25.3388V27.0045C117.165 25.114 115.291 23.8675 113.284 23.8675C112.429 23.8546 111.588 24.0787 110.853 24.5148C110.118 24.9509 109.518 25.582 109.12 26.3382C108.909 24.8141 107.757 24.1423 106.155 24.1423H99.3619C97.7463 24.1423 96.5859 25.1945 96.5859 26.8323C96.5859 28.3953 97.4548 28.7367 98.7706 29.1115C99.2176 29.2392 100.042 29.4419 100.042 30.0304C100.042 30.6189 99.5174 30.8438 99.026 30.8438C98.3245 30.8019 97.6623 30.5058 97.1633 30.011L96.2666 31.7016C97.0896 32.2902 98.0726 32.6136 99.0843 32.6288C99.9133 32.6514 100.724 32.3822 101.375 31.8682C102.016 31.3129 102.207 30.4996 102.207 29.6973C102.207 28.3925 101.339 27.8262 100.217 27.4931L99.6812 27.332C99.3175 27.2154 98.7512 27.0322 98.7512 26.5631C98.7512 26.0939 99.2648 25.8774 99.6479 25.8774H102.876V32.4095H105.022V29.6723H106.238C107.415 29.6723 108.265 29.3336 108.737 28.6035C108.951 31.0215 110.794 32.6843 113.284 32.6843C115.505 32.6843 117.198 31.3712 117.701 29.3836V32.4095H119.847V29.2336H119.869L122.251 32.4095H124.569L121.973 29.0254C123.145 28.8172 123.78 27.8317 123.78 26.6908C123.781 26.4477 123.753 26.2054 123.697 25.969H125.141V32.4095H127.287V25.969H128.594C128.513 26.2486 128.473 26.5385 128.475 26.8296C128.475 28.3953 129.341 28.7367 130.659 29.1115C131.112 29.242 131.936 29.4446 131.936 30.0359C131.936 30.6272 131.412 30.8493 130.918 30.8493C130.215 30.8091 129.551 30.5128 129.052 30.0165L128.153 31.7099C128.983 32.3008 129.974 32.6226 130.993 32.6316C131.823 32.655 132.634 32.3858 133.286 31.8709C133.93 31.3157 134.118 30.4995 134.118 29.6945C134.124 28.3842 133.255 27.8151 132.12 27.4875ZM105.378 27.9456H105.014V25.8857H105.378C106.211 25.8857 106.921 25.8857 106.921 26.9378C106.921 27.99 106.163 27.94 105.386 27.94L105.378 27.9456ZM113.276 30.6078C112.959 30.6033 112.647 30.5354 112.358 30.4082C112.068 30.281 111.807 30.0971 111.589 29.8673C111.372 29.6376 111.203 29.3666 111.092 29.0703C110.981 28.7741 110.931 28.4587 110.944 28.1426C110.944 27.0045 111.996 25.9634 113.276 25.9634C114.555 25.9634 115.61 27.0045 115.61 28.1426C115.623 28.4578 115.572 28.7722 115.461 29.0674C115.35 29.3626 115.181 29.6327 114.965 29.8618C114.748 30.0909 114.488 30.2744 114.199 30.4016C113.91 30.5287 113.599 30.5969 113.284 30.6023L113.276 30.6078ZM120.047 27.8567H119.838V25.7969H120.047C120.749 25.7969 121.537 25.9301 121.537 26.8268C121.537 27.7235 120.757 27.8512 120.055 27.8512L120.047 27.8567Z" fill="url(#paint8_linear)"/>
<path d="M132.12 27.4875L131.584 27.3293C131.22 27.2099 130.651 27.0267 130.651 26.5575C130.651 26.0884 131.168 25.9745 131.553 25.9745H132.703L133.683 24.1562H118.883C118.57 24.1562 118.269 24.2808 118.047 24.5026C117.825 24.7244 117.701 25.0252 117.701 25.3388V27.0045C117.165 25.114 115.291 23.8675 113.284 23.8675C112.429 23.8546 111.588 24.0787 110.853 24.5148C110.118 24.9509 109.518 25.582 109.12 26.3382C108.909 24.8141 107.757 24.1423 106.155 24.1423H99.3619C97.7463 24.1423 96.5859 25.1945 96.5859 26.8323C96.5859 28.3953 97.4548 28.7367 98.7706 29.1115C99.2176 29.2392 100.042 29.4419 100.042 30.0304C100.042 30.6189 99.5174 30.8438 99.026 30.8438C98.3245 30.8019 97.6623 30.5058 97.1633 30.011L96.2666 31.7016C97.0896 32.2902 98.0726 32.6136 99.0843 32.6288C99.9133 32.6514 100.724 32.3822 101.375 31.8682C102.016 31.3129 102.207 30.4996 102.207 29.6973C102.207 28.3925 101.339 27.8262 100.217 27.4931L99.6812 27.332C99.3175 27.2154 98.7512 27.0322 98.7512 26.5631C98.7512 26.0939 99.2648 25.8774 99.6479 25.8774H102.876V32.4095H105.022V29.6723H106.238C107.415 29.6723 108.265 29.3336 108.737 28.6035C108.951 31.0215 110.794 32.6843 113.284 32.6843C115.505 32.6843 117.198 31.3712 117.701 29.3836V32.4095H119.847V29.2336H119.869L122.251 32.4095H124.569L121.973 29.0254C123.145 28.8172 123.78 27.8317 123.78 26.6908C123.781 26.4477 123.753 26.2054 123.697 25.969H125.141V32.4095H127.287V25.969H128.594C128.513 26.2486 128.473 26.5385 128.475 26.8296C128.475 28.3953 129.341 28.7367 130.659 29.1115C131.112 29.242 131.936 29.4446 131.936 30.0359C131.936 30.6272 131.412 30.8493 130.918 30.8493C130.215 30.8091 129.551 30.5128 129.052 30.0165L128.153 31.7099C128.983 32.3008 129.974 32.6226 130.993 32.6316C131.823 32.655 132.634 32.3858 133.286 31.8709C133.93 31.3157 134.118 30.4995 134.118 29.6945C134.124 28.3842 133.255 27.8151 132.12 27.4875ZM105.378 27.9456H105.014V25.8857H105.378C106.211 25.8857 106.921 25.8857 106.921 26.9378C106.921 27.99 106.163 27.94 105.386 27.94L105.378 27.9456ZM113.276 30.6078C112.959 30.6033 112.647 30.5354 112.358 30.4082C112.068 30.281 111.807 30.0971 111.589 29.8673C111.372 29.6376 111.203 29.3666 111.092 29.0703C110.981 28.7741 110.931 28.4587 110.944 28.1426C110.944 27.0045 111.996 25.9634 113.276 25.9634C114.555 25.9634 115.61 27.0045 115.61 28.1426C115.623 28.4578 115.572 28.7722 115.461 29.0674C115.35 29.3626 115.181 29.6327 114.965 29.8618C114.748 30.0909 114.488 30.2744 114.199 30.4016C113.91 30.5287 113.599 30.5969 113.284 30.6023L113.276 30.6078ZM120.047 27.8567H119.838V25.7969H120.047C120.749 25.7969 121.537 25.9301 121.537 26.8268C121.537 27.7235 120.757 27.8512 120.055 27.8512L120.047 27.8567Z" fill="url(#paint9_linear)"/>
<path d="M86.3837 24.1035V28.3453H86.3143L83.9935 24.7364C83.8926 24.5283 83.7299 24.3564 83.5277 24.2441C83.3255 24.1319 83.0936 24.0847 82.8637 24.109H73.0752V25.7747H75.7652V32.5483H78.0888V25.7747H80.6928V32.5483H82.9136V27.4875H82.9608L85.9035 31.9292C86.0055 32.1363 86.1684 32.3071 86.3704 32.4188C86.5724 32.5305 86.8038 32.5776 87.0333 32.5538H88.5574V25.7802H91.1697V32.5538H93.4516V25.7802H95.4754L96.3415 24.1145L86.3837 24.1035Z" fill="url(#paint10_linear)"/>
<path d="M86.3837 24.1035V28.3453H86.3143L83.9935 24.7364C83.8926 24.5283 83.7299 24.3564 83.5277 24.2441C83.3255 24.1319 83.0936 24.0847 82.8637 24.109H73.0752V25.7747H75.7652V32.5483H78.0888V25.7747H80.6928V32.5483H82.9136V27.4875H82.9608L85.9035 31.9292C86.0055 32.1363 86.1684 32.3071 86.3704 32.4188C86.5724 32.5305 86.8038 32.5776 87.0333 32.5538H88.5574V25.7802H91.1697V32.5538H93.4516V25.7802H95.4754L96.3415 24.1145L86.3837 24.1035Z" fill="url(#paint11_linear)"/>
<path d="M111.071 21.0275L112.131 18.3264H117.683L118.691 21.0248H127.977C129.035 21.0881 130.095 20.9344 131.091 20.5731C132.088 20.2117 133 19.6505 133.771 18.9238C134.543 18.197 135.157 17.3202 135.577 16.3472C135.998 15.3742 136.214 14.3255 136.214 13.2656C136.214 12.2058 135.998 11.1571 135.577 10.1841C135.157 9.21102 134.543 8.3342 133.771 7.60748C133 6.88077 132.088 6.3195 131.091 5.9582C130.095 5.59689 129.035 5.44317 127.977 5.50648H122.269V19.0704L117.161 5.50648H112.759L106.79 21.0248L111.071 21.0275ZM126.303 8.92384H127.25C129.845 8.92384 131.675 10.4896 131.675 13.2684C131.675 16.2916 129.618 17.6102 127.211 17.6102H126.303V8.92384ZM114.921 10.3119H114.963L116.609 15.2505H113.242L114.921 10.3119Z" fill="url(#paint12_linear)"/>
<path d="M140.703 5.50926H136.669V21.0276H140.703V5.50926Z" fill="url(#paint13_linear)"/>
<path d="M150.42 5.00125C145.953 5.00125 141.836 8.28813 141.836 12.9797C141.836 18.0016 145.445 21.5411 150.42 21.5411C155.394 21.5411 159 18.0016 159 12.9797C159 8.28813 154.884 5.00125 150.42 5.00125ZM150.42 17.638C148.01 17.638 146.036 15.6947 146.036 13.0075C146.036 10.8671 148.01 8.91276 150.42 8.91276C152.829 8.91276 154.803 10.856 154.803 13.0075C154.803 15.6753 152.826 17.6296 150.42 17.6296V17.638Z" fill="url(#paint14_linear)"/>
<path d="M86.0089 17.6102H77.0366V14.9341H84.371V11.5195H77.0366V8.92385H87.0305C86.8837 9.43743 86.8108 9.9693 86.8139 10.5034C86.8139 13.41 88.4268 14.0457 90.8726 14.7425C91.7054 14.9813 93.2433 15.3588 93.2433 16.4526C93.2433 17.5464 92.2662 17.9655 91.3528 17.9655C90.0175 17.9655 88.8543 17.2687 87.8883 16.4137L86.2226 19.559C87.7649 20.6543 89.6056 21.2511 91.4972 21.2691C93.0101 21.2691 94.5814 20.8527 95.7557 19.8561C96.93 18.8594 97.3075 17.3104 97.3075 15.8169C97.3075 13.3878 95.6946 12.3329 93.607 11.7166L92.6104 11.4195C91.933 11.2002 90.8781 10.8643 90.8781 9.98709C90.8781 9.10985 91.8359 8.71564 92.5438 8.71564H100.483V21.0859H104.697V8.71286H109.297L110.58 5.50926H91.9969C91.9136 5.50926 91.8331 5.50926 91.7498 5.50926H73.0029V21.0276H84.1711L86.0089 17.6102Z" fill="url(#paint15_linear)"/>
<defs>
<linearGradient id="paint0_linear" x1="-2.06895e-07" y1="31" x2="62" y2="22" gradientUnits="userSpaceOnUse">
<stop stop-color="white"/>
<stop offset="1" stop-color="#D5D5D5"/>
</linearGradient>
<linearGradient id="paint1_linear" x1="-2.06895e-07" y1="31" x2="62" y2="22" gradientUnits="userSpaceOnUse">
<stop stop-color="white"/>
<stop offset="1" stop-color="#D5D5D5"/>
</linearGradient>
<linearGradient id="paint2_linear" x1="-2.06895e-07" y1="31" x2="62" y2="22" gradientUnits="userSpaceOnUse">
<stop stop-color="white"/>
<stop offset="1" stop-color="#D5D5D5"/>
</linearGradient>
<linearGradient id="paint3_linear" x1="-2.06895e-07" y1="31" x2="62" y2="22" gradientUnits="userSpaceOnUse">
<stop stop-color="white"/>
<stop offset="1" stop-color="#D5D5D5"/>
</linearGradient>
<linearGradient id="paint4_linear" x1="23787.2" y1="14243.9" x2="35462.9" y2="21740.1" gradientUnits="userSpaceOnUse">
<stop stop-color="#35A6DE"/>
<stop offset="1" stop-color="#1CE3B3"/>
</linearGradient>
<linearGradient id="paint5_linear" x1="2.99298e-07" y1="21.5" x2="62" y2="20.5" gradientUnits="userSpaceOnUse">
<stop stop-color="#359ED6"/>
<stop offset="1" stop-color="#1CDBAB"/>
</linearGradient>
<linearGradient id="paint6_linear" x1="34355.8" y1="4967.47" x2="32078.9" y2="9731.25" gradientUnits="userSpaceOnUse">
<stop stop-color="#35A6DE"/>
<stop offset="1" stop-color="#1CE3B3"/>
</linearGradient>
<linearGradient id="paint7_linear" x1="-0.5" y1="10" x2="62" y2="10" gradientUnits="userSpaceOnUse">
<stop stop-color="#1CDBAB"/>
<stop offset="1" stop-color="#359ED6"/>
</linearGradient>
<linearGradient id="paint8_linear" x1="17067.3" y1="3936.01" x2="16845.9" y2="5245.91" gradientUnits="userSpaceOnUse">
<stop stop-color="#35A6DE"/>
<stop offset="1" stop-color="#1CE3B3"/>
</linearGradient>
<linearGradient id="paint9_linear" x1="75.5" y1="33" x2="150" y2="33" gradientUnits="userSpaceOnUse">
<stop stop-color="#35A6DE"/>
<stop offset="1" stop-color="#1CDBAB"/>
</linearGradient>
<linearGradient id="paint10_linear" x1="17067.3" y1="3936.01" x2="16845.9" y2="5245.91" gradientUnits="userSpaceOnUse">
<stop stop-color="#35A6DE"/>
<stop offset="1" stop-color="#1CE3B3"/>
</linearGradient>
<linearGradient id="paint11_linear" x1="75.5" y1="33" x2="150" y2="33" gradientUnits="userSpaceOnUse">
<stop stop-color="#35A6DE"/>
<stop offset="1" stop-color="#1CDBAB"/>
</linearGradient>
<linearGradient id="paint12_linear" x1="73" y1="22" x2="238.5" y2="22" gradientUnits="userSpaceOnUse">
<stop stop-color="white"/>
<stop offset="1" stop-color="#D4D4D4"/>
</linearGradient>
<linearGradient id="paint13_linear" x1="73" y1="22" x2="238.5" y2="22" gradientUnits="userSpaceOnUse">
<stop stop-color="white"/>
<stop offset="1" stop-color="#D4D4D4"/>
</linearGradient>
<linearGradient id="paint14_linear" x1="73" y1="22" x2="238.5" y2="22" gradientUnits="userSpaceOnUse">
<stop stop-color="white"/>
<stop offset="1" stop-color="#D4D4D4"/>
</linearGradient>
<linearGradient id="paint15_linear" x1="73" y1="22" x2="238.5" y2="22" gradientUnits="userSpaceOnUse">
<stop stop-color="white"/>
<stop offset="1" stop-color="#D4D4D4"/>
</linearGradient>
</defs>
</svg>
