<svg width="100" height="86" viewBox="0 0 100 86" fill="none" xmlns="http://www.w3.org/2000/svg">
<path d="M42.9119 34.9601C35.5367 35.341 28.1905 35.1505 20.8992 33.8788C18.0322 33.42 15.2434 32.5629 12.6137 31.3322C11.5679 30.8287 10.5254 30.2541 10.2511 28.9308C10.2511 31.0288 10.2511 33.1268 10.2511 35.2312C10.2194 35.5788 10.2833 35.9284 10.4357 36.2424C10.5881 36.5564 10.8234 36.8228 11.1161 37.0129C12.0202 37.5996 12.9765 38.102 13.9726 38.5138C19.2692 40.5504 24.8402 41.154 30.4337 41.4994C39.0755 41.9889 47.7448 41.4384 56.2552 39.8597C56.5521 39.8081 58.2951 39.4466 59.3247 39.2335L55.5515 33.4237C51.3459 34.0692 47.1595 34.7374 42.9119 34.9601Z" fill="url(#paint0_linear)"/>
<path d="M46.7689 24.6315C38.1478 25.4094 29.5492 25.3319 20.9991 23.8666C18.1077 23.4248 15.2927 22.5795 12.6362 21.3554C11.584 20.8487 10.5576 20.2483 10.251 18.9282C10.251 21.0262 10.251 23.1242 10.251 25.2286C10.2253 25.5762 10.2938 25.9244 10.4495 26.2362C10.6052 26.5481 10.8421 26.8122 11.1353 27.0006C11.9223 27.5321 12.7577 27.9882 13.6303 28.3627C18.4944 30.2993 23.6361 30.9739 28.8004 31.3612C34.9594 31.8294 41.1479 31.7451 47.2918 31.1095C48.6313 30.9675 51.7298 30.5543 53.5341 30.3187L49.6125 24.2829C48.6539 24.4153 47.7114 24.5476 46.7689 24.6315Z" fill="url(#paint1_linear)"/>
<path d="M82.3573 32.2521C82.3057 31.0417 82.3573 29.8248 82.3573 28.6145V26.2292C82.1863 27.2492 81.4794 27.814 80.6821 28.2852C78.6584 29.4859 76.399 30.0024 74.1364 30.4962C73.5296 30.6253 72.9196 30.7383 72.3063 30.848V37.3615C73.7555 37.0645 75.2112 36.787 76.6475 36.4287C78.2547 36.0783 79.7855 35.4408 81.1663 34.5469C81.556 34.3102 81.8732 33.971 82.0832 33.5663C82.2933 33.1616 82.3881 32.707 82.3573 32.2521Z" fill="url(#paint2_linear)"/>
<path d="M77.8354 26.0259C79.034 25.6033 80.1876 25.0627 81.2793 24.412C82.0475 23.9892 82.3638 23.2501 82.3445 22.3334C82.309 20.4743 82.3445 18.6119 82.3445 16.7495C82.3445 16.5849 82.3219 16.4268 82.3025 16.1492C81.9797 17.2337 81.615 17.763 80.6402 18.2827C79.935 18.7033 79.1847 19.0432 78.4035 19.2962C76.3862 19.8546 74.3463 20.329 72.3032 20.797V27.4267C74.2269 26.9651 76.057 26.5746 77.8354 26.0259Z" fill="url(#paint3_linear)"/>
<path d="M82.2607 7.48287C82.2607 6.57266 82.3575 5.90776 82.0477 5.35583C81.5442 6.83733 80.1111 8.37047 77.3288 9.4937C75.5148 9.86811 73.7138 10.2909 71.8902 10.604C69.2887 11.0527 66.6742 11.4335 64.0631 11.8112C63.5273 11.8886 63.3626 12.0759 63.3691 12.6278C63.4111 17.0239 63.4175 21.4232 63.4337 25.8193C63.4512 26.0674 63.4103 26.3161 63.3142 26.5455C62.7946 25.7677 62.2717 24.9898 61.7553 24.2087C59.7315 21.1359 57.6948 18.0761 55.7001 14.9808C54.8803 13.7058 53.7893 13.2862 52.3208 13.5315C45.7314 14.6026 39.0492 14.9909 32.3801 14.6903C27.8098 14.5063 23.262 14.0996 18.7916 13.0764C17.9234 12.8795 17.068 12.6278 16.2095 12.3825C15.2346 12.111 14.3033 11.7024 13.4434 11.1689C12.1071 10.3297 10.6546 8.98696 11.1582 7.29566C10.49 7.82499 10.2641 8.46731 10.2641 9.40979C10.2641 11.4916 10.2383 12.857 10.2383 14.5741C10.2383 16.3945 10.7289 16.6075 11.7553 17.2079C13.7242 18.3537 15.8932 18.9702 18.0719 19.5157C22.4389 20.6034 26.8963 21.0423 31.3828 21.2457C37.9737 21.5459 44.5453 21.3586 51.0716 20.3452C51.2344 20.3198 51.4009 20.3423 51.5511 20.4099C51.7012 20.4775 51.8285 20.5874 51.9173 20.726C52.6758 21.9106 53.4763 23.0661 54.2477 24.241C57.1138 28.5983 59.9768 32.9579 62.8366 37.3195C63.3691 38.1361 64.0727 38.7139 65.0733 38.63C66.3644 38.5234 67.6748 38.3072 69.0175 38.1135V17.6823C71.2769 17.2498 73.4556 16.8754 75.6278 16.3913C77.5321 15.9717 79.3978 15.423 81.0568 14.3191C82.0509 13.6736 82.2801 12.8085 82.2801 11.3754C82.2898 10.0521 82.2607 9.33555 82.2607 7.48287Z" fill="url(#paint4_linear)"/>
<path d="M13.6174 5.96586C12.7281 6.26885 11.8974 6.72189 11.1611 7.30534C10.2832 10.2522 15.1764 12.0371 15.1764 12.0371C15.2396 11.9955 15.3095 11.965 15.3829 11.9467C16.6159 11.6627 17.8392 11.3012 19.0883 11.1108C24.3645 10.2501 29.6449 9.4227 34.9297 8.62869C38.3188 8.10904 41.7079 7.57325 45.1098 7.1601C49.3702 6.65842 53.6617 6.4707 57.9496 6.59848C63.4076 6.7405 68.8397 7.11814 74.1622 8.37694C75.2273 8.63192 76.3667 8.91273 77.3285 9.49371C80.043 8.40598 81.5439 6.83734 82.0474 5.35583C81.7992 4.94279 81.4534 4.59698 81.0403 4.34879C80.6795 4.10544 80.3008 3.88965 79.9074 3.70325C77.4459 2.63395 74.8694 1.85199 72.2288 1.37287C67.7092 0.554208 63.1297 0.109436 58.537 0.0430664C52.7538 -0.128074 46.9667 0.211074 41.2431 1.05656L16.532 5.2009C15.5395 5.3681 14.564 5.62412 13.6174 5.96586Z" fill="url(#paint5_linear)"/>
<path d="M13.6174 5.96586C12.7281 6.26885 11.8974 6.72189 11.1611 7.30534C10.2832 10.2522 15.1764 12.0371 15.1764 12.0371C15.2396 11.9955 15.3095 11.965 15.3829 11.9467C16.6159 11.6627 17.8392 11.3012 19.0883 11.1108C24.3645 10.2501 29.6449 9.4227 34.9297 8.62869C38.3188 8.10904 41.7079 7.57325 45.1098 7.1601C49.3702 6.65842 53.6617 6.4707 57.9496 6.59848C63.4076 6.7405 68.8397 7.11814 74.1622 8.37694C75.2273 8.63192 76.3667 8.91273 77.3285 9.49371C80.043 8.40598 81.5439 6.83734 82.0474 5.35583C81.7992 4.94279 81.4534 4.59698 81.0403 4.34879C80.6795 4.10544 80.3008 3.88965 79.9074 3.70325C77.4459 2.63395 74.8694 1.85199 72.2288 1.37287C67.7092 0.554208 63.1297 0.109436 58.537 0.0430664C52.7538 -0.128074 46.9667 0.211074 41.2431 1.05656L16.532 5.2009C15.5395 5.3681 14.564 5.62412 13.6174 5.96586Z" fill="url(#paint6_linear)"/>
<path d="M79.7305 79.6764L79.1075 79.4891C78.6847 79.3536 78.023 79.1406 78.023 78.5919C78.023 78.0432 78.6201 77.914 79.0688 77.914H80.4083L81.5477 75.7999H64.3312C63.9665 75.7999 63.6168 75.9448 63.3589 76.2026C63.1011 76.4605 62.9562 76.8102 62.9562 77.1749V79.1309C62.3301 76.9328 60.1514 75.4836 57.821 75.4836C56.8278 75.4687 55.8499 75.7289 54.9954 76.2353C54.1409 76.7417 53.4432 77.4747 52.9795 78.353C52.7374 76.581 51.3979 75.7999 49.5355 75.7999H41.6116C39.7331 75.7999 38.3839 77.0264 38.3839 78.9308C38.3839 80.7447 39.3909 81.145 40.9209 81.5807C41.4437 81.7292 42.4024 81.9648 42.4024 82.6491C42.4024 83.3333 41.7923 83.5948 41.221 83.5948C40.4051 83.5472 39.6347 83.2028 39.0553 82.6265L38.0095 84.5921C38.9743 85.2768 40.1251 85.6507 41.3082 85.6637C42.272 85.6899 43.2144 85.3769 43.971 84.7793C44.7166 84.1338 44.9393 83.1881 44.9393 82.2553C44.9393 80.7383 43.9323 80.0766 42.625 79.6925L42.0054 79.5053C41.5825 79.3697 40.9209 79.1567 40.9209 78.608C40.9209 78.0593 41.518 77.814 41.9666 77.814H45.7204V85.4087H48.2122V82.223H49.6259C50.9912 82.223 51.9821 81.8324 52.5308 80.9836C52.7793 83.7949 54.9225 85.7283 57.8178 85.7283C60.3999 85.7283 62.3688 84.1983 62.953 81.8873V85.4087H65.448V81.7098H65.4738L68.2432 85.4055H70.9383L67.9204 81.4677C69.2825 81.2256 70.0216 80.0798 70.0216 78.7565C70.0225 78.4728 69.99 78.1901 69.9248 77.914H71.5999V85.4055H74.0981V77.914H75.6184C75.5216 78.2398 75.4737 78.5781 75.4764 78.9179C75.4764 80.735 76.4866 81.1353 78.0198 81.571C78.5427 81.7227 79.5045 81.9583 79.5045 82.6426C79.5045 83.3269 78.8913 83.5915 78.32 83.5915C77.5029 83.5448 76.7313 83.2003 76.151 82.6232L75.102 84.5921C76.0686 85.2781 77.2219 85.652 78.4071 85.6637C79.3719 85.6899 80.3153 85.3769 81.0732 84.7793C81.822 84.1338 82.0415 83.1655 82.0415 82.2488C82.048 80.7254 81.0409 80.0637 79.7305 79.6764ZM48.635 80.2089H48.2122V77.814H48.6318C49.6001 77.814 50.4296 77.814 50.4296 79.0373C50.4296 80.2606 49.542 80.2089 48.635 80.2089ZM57.821 83.3043C57.453 83.2994 57.0897 83.2208 56.7526 83.0731C56.4155 82.9255 56.1114 82.7117 55.8584 82.4445C55.6053 82.1773 55.4084 81.8621 55.2793 81.5174C55.1501 81.1728 55.0914 80.8058 55.1065 80.4381C55.1065 79.1115 56.3298 77.9011 57.821 77.9011C59.3122 77.9011 60.5355 79.1115 60.5355 80.4381C60.5506 80.8058 60.4918 81.1728 60.3627 81.5174C60.2336 81.8621 60.0366 82.1773 59.7836 82.4445C59.5305 82.7117 59.2264 82.9255 58.8893 83.0731C58.5522 83.2208 58.189 83.2994 57.821 83.3043ZM65.6933 80.1056H65.4512V77.7107H65.6933C66.5099 77.7107 67.4266 77.8656 67.4266 78.9082C67.4266 79.9507 66.5099 80.1056 65.6933 80.1056Z" fill="url(#paint7_linear)"/>
<path d="M26.5415 75.7483V80.6672H26.4511L23.7496 76.4713C23.6341 76.2278 23.4454 76.0266 23.2098 75.8957C22.9742 75.7649 22.7036 75.7111 22.4359 75.7418H11.0713V77.6784H14.186V85.5572H16.9037V77.6849H19.928V85.5636H22.5102V79.6989H22.565L25.9993 84.8406C26.1178 85.0817 26.3071 85.2807 26.5419 85.4111C26.7767 85.5415 27.0457 85.597 27.313 85.5701H29.0882V77.6849H32.1222V85.5636H34.7786V77.6849H37.138L38.1451 75.7483H26.5415Z" fill="url(#paint8_linear)"/>
<path d="M44.2709 68.9411L45.5167 65.807H51.9721L53.147 68.9411H63.9435C65.1736 69.0147 66.4058 68.836 67.5642 68.4159C68.7227 67.9958 69.783 67.3432 70.6801 66.4983C71.5771 65.6534 72.2918 64.6339 72.7803 63.5026C73.2689 62.3713 73.5209 61.152 73.5209 59.9197C73.5209 58.6874 73.2689 57.4682 72.7803 56.3368C72.2918 55.2055 71.5771 54.1861 70.6801 53.3412C69.783 52.4962 68.7227 51.8436 67.5642 51.4236C66.4058 51.0035 65.1736 50.8248 63.9435 50.8984H57.2913V66.672L51.3524 50.8984H46.23L39.2905 68.9411H44.2709ZM61.9844 54.8716H63.085C66.0996 54.8716 68.2299 56.692 68.2299 59.9197C68.2299 63.4379 65.8382 64.971 63.0366 64.971H61.9844V54.8716ZM48.7509 56.4855H48.7961L50.7133 62.2275H46.811L48.7509 56.4855Z" fill="url(#paint9_linear)"/>
<path d="M78.7231 50.8984H74.0333V68.9411H78.7231V50.8984Z" fill="url(#paint10_linear)"/>
<path d="M90.0233 50.3012C84.8299 50.3012 80.0433 54.1293 80.0433 59.5873C80.0433 65.4229 84.2393 69.5414 90.0233 69.5414C95.8073 69.5414 100 65.4229 100 59.5873C100 54.1293 95.2134 50.3012 90.0233 50.3012ZM90.0233 64.9936C87.2216 64.9936 84.9268 62.7343 84.9268 59.6099C84.9268 57.1213 87.2216 54.849 90.0233 54.849C92.8249 54.849 95.1198 57.1084 95.1198 59.6099C95.1198 62.7214 92.8217 64.9936 90.0233 64.9936Z" fill="url(#paint11_linear)"/>
<path d="M15.1314 64.9711H4.69948V61.8596H13.2335V57.8863H4.69948V54.8717H16.3191C16.1485 55.4688 16.0637 56.0872 16.0674 56.7082C16.0674 60.0844 17.9394 60.8267 20.7863 61.6369C21.7546 61.9144 23.5395 62.3534 23.5395 63.6251C23.5395 64.8968 22.4065 65.3842 21.3414 65.3842C19.7921 65.3842 18.4365 64.5741 17.3165 63.5799L15.3799 67.2337C17.1718 68.51 19.3126 69.2052 21.5125 69.2251C23.2716 69.2251 25.1017 68.7378 26.467 67.5823C27.8323 66.4268 28.2712 64.6192 28.2712 62.886C28.2712 60.0618 26.396 58.8353 23.9655 58.1187L22.81 57.7701C22.0225 57.5184 20.7959 57.1246 20.7959 56.1046C20.7959 55.0847 21.9063 54.6264 22.7326 54.6264H31.9669V69.0089H36.8665V54.6264H42.2148L43.706 50.8984H22.087C21.9902 50.8984 21.8966 50.8984 21.7998 50.8984H0V68.9411H12.9882L15.1314 64.9711Z" fill="url(#paint12_linear)"/>
<defs>
<linearGradient id="paint0_linear" x1="10.2407" y1="42.3804" x2="149.033" y2="42.3804" gradientUnits="userSpaceOnUse">
<stop stop-color="white"/>
<stop offset="1" stop-color="#D4D4D4"/>
</linearGradient>
<linearGradient id="paint1_linear" x1="10.2407" y1="42.3804" x2="149.033" y2="42.3804" gradientUnits="userSpaceOnUse">
<stop stop-color="white"/>
<stop offset="1" stop-color="#D4D4D4"/>
</linearGradient>
<linearGradient id="paint2_linear" x1="10.2407" y1="42.3804" x2="149.033" y2="42.3804" gradientUnits="userSpaceOnUse">
<stop stop-color="white"/>
<stop offset="1" stop-color="#D4D4D4"/>
</linearGradient>
<linearGradient id="paint3_linear" x1="10.2407" y1="42.3804" x2="149.033" y2="42.3804" gradientUnits="userSpaceOnUse">
<stop stop-color="white"/>
<stop offset="1" stop-color="#D4D4D4"/>
</linearGradient>
<linearGradient id="paint4_linear" x1="10" y1="23.5" x2="82" y2="22" gradientUnits="userSpaceOnUse">
<stop stop-color="#359FD7"/>
<stop offset="1" stop-color="#1CE3B3"/>
</linearGradient>
<linearGradient id="paint5_linear" x1="103727" y1="5049.09" x2="101084" y2="10584.9" gradientUnits="userSpaceOnUse">
<stop stop-color="#35A6DE"/>
<stop offset="1" stop-color="#1CE3B3"/>
</linearGradient>
<linearGradient id="paint6_linear" x1="10" y1="11" x2="82" y2="10" gradientUnits="userSpaceOnUse">
<stop stop-color="#1CDBAB"/>
<stop offset="1" stop-color="#35A6DE"/>
</linearGradient>
<linearGradient id="paint7_linear" x1="11" y1="86" x2="116" y2="86" gradientUnits="userSpaceOnUse">
<stop stop-color="#359FD7"/>
<stop offset="1" stop-color="#1CDBAB"/>
</linearGradient>
<linearGradient id="paint8_linear" x1="11" y1="86" x2="116" y2="86" gradientUnits="userSpaceOnUse">
<stop stop-color="#359FD7"/>
<stop offset="1" stop-color="#1CDBAB"/>
</linearGradient>
<linearGradient id="paint9_linear" x1="-0.00340672" y1="70.0752" x2="192.444" y2="70.0752" gradientUnits="userSpaceOnUse">
<stop stop-color="white"/>
<stop offset="1" stop-color="#D4D4D4"/>
</linearGradient>
<linearGradient id="paint10_linear" x1="-0.00340672" y1="70.0752" x2="192.444" y2="70.0752" gradientUnits="userSpaceOnUse">
<stop stop-color="white"/>
<stop offset="1" stop-color="#D4D4D4"/>
</linearGradient>
<linearGradient id="paint11_linear" x1="-0.00340672" y1="70.0752" x2="192.444" y2="70.0752" gradientUnits="userSpaceOnUse">
<stop stop-color="white"/>
<stop offset="1" stop-color="#D4D4D4"/>
</linearGradient>
<linearGradient id="paint12_linear" x1="-0.00340672" y1="70.0752" x2="192.444" y2="70.0752" gradientUnits="userSpaceOnUse">
<stop stop-color="white"/>
<stop offset="1" stop-color="#D4D4D4"/>
</linearGradient>
</defs>
</svg>
